<svg version="1" xmlns="http://www.w3.org/2000/svg" width="613.333" height="613.333" viewBox="0 0 460.000000 460.000000"><path d="M215.5 45.6c-1.6.2-5.7.9-9 1.5s-7.1 1.3-8.5 1.6c-1.4.2-7.2 2-13 3.9-51 17-88.8 64-94.8 117.9-.4 3.3-.7 35.2-.7 71v65l2.8 5.7c5.2 10.7 15.3 16.5 26.7 15.5 10.7-.9 18.8-6.7 23.6-17.1l2.3-5 .1-63.1c.1-64.1.2-68.8 2.1-76 10.1-39.1 43.4-65.5 82.7-65.6 36.9-.1 70.6 24.6 81.2 59.4 3.8 12.6 4 17.1 4.3 82.7l.2 64.5 2.7 5.1c5.5 10.5 16.3 16.3 27.6 15 10.1-1.2 17.5-6.4 21.9-15.4l2.8-5.7.1-64.8c0-35.7-.3-67.2-.7-70-.4-2.9-1-7-1.3-9.2-1.5-11.5-6.5-26.5-13.1-39.8-8.8-17.4-17.8-28.9-35.2-44.8-8.4-7.7-28.2-19.2-41.3-24.1-7.9-2.9-22.4-6.5-30.2-7.6-6.9-.9-28-1.3-33.3-.6z"/><path d="M218.8 131.7c-11.6 2.3-23.6 9.1-30.6 17.3-4 4.6-8.5 12.8-10.8 19.7l-2.7 7.8-.2 66c-.2 58-.4 66.7-1.9 72.2-6.9 25.9-30.6 44.7-56.1 44.5-16.3-.1-28.6-5.2-40.1-16.6-9.3-9.1-15-19.8-17-31.6-.4-2.5-.8-38.7-.9-80.5v-76l-2.3-4.6c-8.3-17-30.3-21.7-44.1-9.3-3.8 3.4-5.2 5.6-6.9 10.8-2.1 6.5-2.2 7.5-2.2 82.8 0 83.5.2 85.6 5.9 102.7 6 17.9 14.8 32 28.2 45.4 14.6 14.4 35.1 25.9 53.4 29.8 3.3.7 6.7 1.4 7.5 1.7.8.2 8.3.5 16.5.7 15.9.3 25.2-1 38.8-5.6 34.3-11.6 61.9-40.8 72.1-76.3 2.6-8.7 3.9-15.7 3.9-20.8.1-2.9 1-2.9 1.2 0 .3 2.4 1.4 10.1 2.1 13.7.9 5 6.2 20.1 9 25.7 10.9 21.9 29.9 41.1 50.9 51.6 17.8 9 33.1 12.3 54 11.8 13.8-.3 17.3-.9 30.8-4.8 38.8-11.1 69.7-46.4 78.3-89.3.4-2.2.9-39.8 1-83.5.3-88.4.4-86.1-6.3-94-6.9-8-17.5-11.2-28.2-8.4-8.4 2.2-14.1 7-18.2 15.4l-2.3 4.5-.1 77c-.2 68.8-.3 77.7-1.9 83.4-2.9 11.1-7.4 18.9-15.6 27.2-31.6 31.8-84.7 17.2-96.6-26.6-1.4-5.2-1.7-14.5-1.8-72-.2-59.8-.4-66.6-2-72-8.6-29.2-35.8-45.8-64.8-39.8z"/></svg>